<svg version="1.1" xmlns="http://www.w3.org/2000/svg" xmlns:xlink="http://www.w3.org/1999/xlink" width="641.82061" height="483.87337" viewBox="0,0,641.82061,483.87337"><g transform="translate(80.9103,66.93669)"><g data-paper-data="{&quot;isPaintingLayer&quot;:true}" fill-rule="nonzero" stroke="none" stroke-linecap="butt" stroke-linejoin="miter" stroke-miterlimit="10" stroke-dasharray="" stroke-dashoffset="0" style="mix-blend-mode: normal"><path d="M-28.59513,-66.93668h521.86918v483.87337h-521.86918z" fill="#382600" stroke-width="1"/><g fill-opacity="0.21961" fill="#000000" stroke-width="0"><path d="M-60.61934,-11.2842l1.40284,-26.22893l620.12681,33.16696l-1.40283,26.22893z"/><path d="M-62.87389,30.86944l1.40283,-26.22892l620.12681,33.16696l-1.40283,26.22893z"/><path d="M-65.12844,73.02307l1.40283,-26.22893l620.12681,33.16696l-1.40283,26.22893z"/><path d="M-67.38299,115.17671l1.40283,-26.22893l620.12681,33.16696l-1.40283,26.22893z"/><path d="M-69.63754,157.33035l1.40283,-26.22893l620.12681,33.16696l-1.40283,26.22892z"/><path d="M-71.89209,199.48398l1.40283,-26.22893l620.12681,33.16696l-1.40283,26.22893z"/><path d="M-74.14665,241.63762l1.40283,-26.22893l620.12681,33.16696l-1.40284,26.22893z"/><path d="M-76.4012,283.79125l1.40283,-26.22892l620.12681,33.16696l-1.40283,26.22892z"/><path d="M-78.65575,325.94489l1.40283,-26.22893l620.12681,33.16696l-1.40283,26.22893z"/><path d="M-80.9103,368.09853l1.40283,-26.22893l620.12681,33.16696l-1.40283,26.22893z"/></g><g fill-opacity="0.21961" fill="#ffffff" stroke-width="0"><path d="M-60.61934,-15.03654l1.40284,-26.22893l620.12681,33.16696l-1.40283,26.22893z"/><path d="M-62.87389,27.11709l1.40283,-26.22892l620.12681,33.16696l-1.40283,26.22893z"/><path d="M-65.12844,69.27073l1.40283,-26.22892l620.12681,33.16696l-1.40283,26.22893z"/><path d="M-67.38299,111.42437l1.40283,-26.22892l620.12681,33.16696l-1.40283,26.22893z"/><path d="M-69.63754,153.57799l1.40283,-26.22892l620.12681,33.16696l-1.40283,26.22893z"/><path d="M-71.89209,195.73164l1.40283,-26.22893l620.12681,33.16696l-1.40283,26.22893z"/><path d="M-74.14665,237.88528l1.40283,-26.22893l620.12681,33.16696l-1.40284,26.22893z"/><path d="M-76.4012,280.03891l1.40283,-26.22893l620.12681,33.16696l-1.40283,26.22893z"/><path d="M-78.65575,322.19255l1.40283,-26.22893l620.12681,33.16696l-1.40283,26.22893z"/><path d="M-80.9103,364.34619l1.40283,-26.22893l620.12681,33.16696l-1.40283,26.22893z"/></g><g fill="#493200" stroke-width="0"><path d="M-60.61934,-13.16037l1.40283,-26.22893l620.12681,33.16696l-1.40283,26.22893z"/><path d="M-62.87389,28.99327l1.40283,-26.22893l620.12681,33.16696l-1.40283,26.22893z"/><path d="M-65.12844,71.1469l1.40283,-26.22893l620.12681,33.16696l-1.40283,26.22893z"/><path d="M-67.38299,113.30054l1.40283,-26.22893l620.12681,33.16696l-1.40283,26.22893z"/><path d="M-69.63756,155.45418l1.40283,-26.22893l620.12681,33.16696l-1.40283,26.22893z"/><path d="M-71.8921,197.60781l1.40283,-26.22893l620.12681,33.16696l-1.40283,26.22893z"/><path d="M-74.14665,239.76145l1.40283,-26.22893l620.12681,33.16696l-1.40283,26.22893z"/><path d="M-76.4012,281.91508l1.40283,-26.22893l620.12681,33.16696l-1.40283,26.22893z"/><path d="M-78.65575,324.06872l1.40283,-26.22893l620.12681,33.16696l-1.40283,26.22893z"/><path d="M-80.9103,366.22236l1.40283,-26.22893l620.12681,33.16696l-1.40283,26.22893z"/></g><text transform="translate(138.84808,347.21169) scale(0.81561,0.81561)" font-size="40" xml:space="preserve" fill-opacity="0.35294" fill="#000000" fill-rule="nonzero" stroke="none" stroke-width="1" stroke-linecap="butt" stroke-linejoin="miter" stroke-miterlimit="10" stroke-dasharray="" stroke-dashoffset="0" font-family="Sans Serif" font-weight="normal" text-anchor="start" style="mix-blend-mode: normal"><tspan x="0" dy="0">Please wait...</tspan></text><text transform="translate(138.84808,343.90141) scale(0.81561,0.81561)" font-size="40" xml:space="preserve" fill="#7f5700" fill-rule="nonzero" stroke="none" stroke-width="1" stroke-linecap="butt" stroke-linejoin="miter" stroke-miterlimit="10" stroke-dasharray="" stroke-dashoffset="0" font-family="Sans Serif" font-weight="normal" text-anchor="start" style="mix-blend-mode: normal"><tspan x="0" dy="0">Please wait...</tspan></text></g></g></svg>