<svg version="1.1" xmlns="http://www.w3.org/2000/svg" xmlns:xlink="http://www.w3.org/1999/xlink" width="641.82061" height="483.87337" viewBox="0,0,641.82061,483.87337"><g transform="translate(80.9103,66.93669)"><g data-paper-data="{&quot;isPaintingLayer&quot;:true}" fill-rule="nonzero" stroke="none" stroke-linecap="butt" stroke-linejoin="miter" stroke-miterlimit="10" stroke-dasharray="" stroke-dashoffset="0" style="mix-blend-mode: normal"><path d="M-28.59513,-66.93669h521.86918v483.87337h-521.86918z" fill="#382600" stroke-width="1"/><g fill-opacity="0.21961" fill="#000000" stroke-width="0"><path d="M-60.61934,-11.28421l1.40284,-26.22893l620.12681,33.16696l-1.40283,26.22893z"/><path d="M-62.87389,30.86943l1.40283,-26.22892l620.12681,33.16696l-1.40283,26.22893z"/><path d="M-65.12844,73.02306l1.40283,-26.22893l620.12681,33.16696l-1.40283,26.22893z"/><path d="M-67.38299,115.1767l1.40283,-26.22893l620.12681,33.16696l-1.40283,26.22893z"/><path d="M-69.63754,157.33034l1.40283,-26.22893l620.12681,33.16696l-1.40283,26.22892z"/><path d="M-71.89209,199.48397l1.40283,-26.22893l620.12681,33.16696l-1.40283,26.22893z"/><path d="M-74.14665,241.63761l1.40283,-26.22893l620.12681,33.16696l-1.40284,26.22893z"/><path d="M-76.4012,283.79125l1.40283,-26.22892l620.12681,33.16696l-1.40283,26.22892z"/><path d="M-78.65575,325.94488l1.40283,-26.22893l620.12681,33.16696l-1.40283,26.22893z"/><path d="M-80.9103,368.09852l1.40283,-26.22893l620.12681,33.16696l-1.40283,26.22893z"/></g><g fill-opacity="0.21961" fill="#ffffff" stroke-width="0"><path d="M-60.61934,-15.03655l1.40284,-26.22893l620.12681,33.16696l-1.40283,26.22893z"/><path d="M-62.87389,27.11708l1.40283,-26.22892l620.12681,33.16696l-1.40283,26.22893z"/><path d="M-65.12844,69.27072l1.40283,-26.22892l620.12681,33.16696l-1.40283,26.22893z"/><path d="M-67.38299,111.42436l1.40283,-26.22892l620.12681,33.16696l-1.40283,26.22893z"/><path d="M-69.63754,153.57799l1.40283,-26.22892l620.12681,33.16696l-1.40283,26.22893z"/><path d="M-71.89209,195.73163l1.40283,-26.22893l620.12681,33.16696l-1.40283,26.22893z"/><path d="M-74.14665,237.88527l1.40283,-26.22893l620.12681,33.16696l-1.40284,26.22893z"/><path d="M-76.4012,280.0389l1.40283,-26.22893l620.12681,33.16696l-1.40283,26.22893z"/><path d="M-78.65575,322.19254l1.40283,-26.22893l620.12681,33.16696l-1.40283,26.22893z"/><path d="M-80.9103,364.34618l1.40283,-26.22893l620.12681,33.16696l-1.40283,26.22893z"/></g><g fill="#493200" stroke-width="0"><path d="M-60.61934,-13.16038l1.40283,-26.22893l620.12681,33.16696l-1.40283,26.22893z"/><path d="M-62.87389,28.99326l1.40283,-26.22893l620.12681,33.16696l-1.40283,26.22893z"/><path d="M-65.12844,71.14689l1.40283,-26.22893l620.12681,33.16696l-1.40283,26.22893z"/><path d="M-67.38299,113.30053l1.40283,-26.22893l620.12681,33.16696l-1.40283,26.22893z"/><path d="M-69.63755,155.45417l1.40283,-26.22893l620.12681,33.16696l-1.40283,26.22893z"/><path d="M-71.8921,197.6078l1.40283,-26.22893l620.12681,33.16696l-1.40283,26.22893z"/><path d="M-74.14665,239.76144l1.40283,-26.22893l620.12681,33.16696l-1.40283,26.22893z"/><path d="M-76.4012,281.91508l1.40283,-26.22893l620.12681,33.16696l-1.40283,26.22893z"/><path d="M-78.65575,324.06871l1.40283,-26.22893l620.12681,33.16696l-1.40283,26.22893z"/><path d="M-80.9103,366.22235l1.40283,-26.22893l620.12681,33.16696l-1.40283,26.22893z"/></g></g></g></svg>