<svg version="1.1" xmlns="http://www.w3.org/2000/svg" xmlns:xlink="http://www.w3.org/1999/xlink" width="690.37836" height="690.37836" viewBox="0,0,690.37836,690.37836"><defs><radialGradient cx="240" cy="180" r="345.18918" gradientUnits="userSpaceOnUse" id="color-1"><stop offset="0" stop-color="#493200"/><stop offset="1" stop-color="#493200" stop-opacity="0"/></radialGradient><radialGradient cx="240" cy="180" r="171.015" gradientUnits="userSpaceOnUse" id="color-2"><stop offset="0" stop-color="#34ff00" stop-opacity="0.42745"/><stop offset="1" stop-color="#34ff00" stop-opacity="0"/></radialGradient><radialGradient cx="240" cy="180" r="345.18918" gradientUnits="userSpaceOnUse" id="color-3"><stop offset="0" stop-color="#000000" stop-opacity="0"/><stop offset="1" stop-color="#000000"/></radialGradient></defs><g transform="translate(105.18918,165.18918)"><g data-paper-data="{&quot;isPaintingLayer&quot;:true}" fill-rule="nonzero" stroke="none" stroke-linecap="butt" stroke-linejoin="miter" stroke-miterlimit="10" stroke-dasharray="" stroke-dashoffset="0" style="mix-blend-mode: normal"><path d="M-28.59513,-66.93668h521.86918v483.87337h-521.86918z" fill="#382600" stroke-width="1"/><g fill-opacity="0.21961" fill="#000000" stroke-width="0"><path d="M-60.61934,-11.2842l1.40284,-26.22893l620.12681,33.16696l-1.40283,26.22893z"/><path d="M-62.87389,30.86944l1.40283,-26.22892l620.12681,33.16696l-1.40283,26.22893z"/><path d="M-65.12844,73.02307l1.40283,-26.22893l620.12681,33.16696l-1.40283,26.22893z"/><path d="M-67.38299,115.17671l1.40283,-26.22893l620.12681,33.16696l-1.40283,26.22893z"/><path d="M-69.63754,157.33035l1.40283,-26.22893l620.12681,33.16696l-1.40283,26.22892z"/><path d="M-71.89209,199.48398l1.40283,-26.22893l620.12681,33.16696l-1.40283,26.22893z"/><path d="M-74.14665,241.63762l1.40283,-26.22893l620.12681,33.16696l-1.40284,26.22893z"/><path d="M-76.4012,283.79125l1.40283,-26.22892l620.12681,33.16696l-1.40283,26.22892z"/><path d="M-78.65575,325.94489l1.40283,-26.22893l620.12681,33.16696l-1.40283,26.22893z"/><path d="M-80.9103,368.09853l1.40283,-26.22893l620.12681,33.16696l-1.40283,26.22893z"/></g><g fill-opacity="0.21961" fill="#ffffff" stroke-width="0"><path d="M-60.61934,-15.03654l1.40284,-26.22893l620.12681,33.16696l-1.40283,26.22893z"/><path d="M-62.87389,27.11709l1.40283,-26.22892l620.12681,33.16696l-1.40283,26.22893z"/><path d="M-65.12844,69.27073l1.40283,-26.22892l620.12681,33.16696l-1.40283,26.22893z"/><path d="M-67.38299,111.42437l1.40283,-26.22892l620.12681,33.16696l-1.40283,26.22893z"/><path d="M-69.63754,153.57799l1.40283,-26.22892l620.12681,33.16696l-1.40283,26.22893z"/><path d="M-71.89209,195.73164l1.40283,-26.22893l620.12681,33.16696l-1.40283,26.22893z"/><path d="M-74.14665,237.88528l1.40283,-26.22893l620.12681,33.16696l-1.40284,26.22893z"/><path d="M-76.4012,280.03891l1.40283,-26.22893l620.12681,33.16696l-1.40283,26.22893z"/><path d="M-78.65575,322.19255l1.40283,-26.22893l620.12681,33.16696l-1.40283,26.22893z"/><path d="M-80.9103,364.34619l1.40283,-26.22893l620.12681,33.16696l-1.40283,26.22893z"/></g><path d="M-105.18918,180c0,-190.64272 154.54646,-345.18918 345.18918,-345.18918c190.64272,0 345.18918,154.54646 345.18918,345.18918c0,190.64272 -154.54646,345.18918 -345.18918,345.18918c-190.64272,0 -345.18918,-154.54646 -345.18918,-345.18918z" fill="url(#color-1)" stroke-width="0"/><g fill="#493200" stroke-width="0"><path d="M-60.61934,-13.16037l1.40283,-26.22893l620.12681,33.16696l-1.40283,26.22893z"/><path d="M-62.87389,28.99327l1.40283,-26.22893l620.12681,33.16696l-1.40283,26.22893z"/><path d="M-65.12844,71.1469l1.40283,-26.22893l620.12681,33.16696l-1.40283,26.22893z"/><path d="M-67.38299,113.30054l1.40283,-26.22893l620.12681,33.16696l-1.40283,26.22893z"/><path d="M-69.63756,155.45418l1.40283,-26.22893l620.12681,33.16696l-1.40283,26.22893z"/><path d="M-71.8921,197.60781l1.40283,-26.22893l620.12681,33.16696l-1.40283,26.22893z"/><path d="M-74.14665,239.76145l1.40283,-26.22893l620.12681,33.16696l-1.40283,26.22893z"/><path d="M-76.4012,281.91508l1.40283,-26.22893l620.12681,33.16696l-1.40283,26.22893z"/><path d="M-78.65575,324.06872l1.40283,-26.22893l620.12681,33.16696l-1.40283,26.22893z"/><path d="M-80.9103,366.22236l1.40283,-26.22893l620.12681,33.16696l-1.40283,26.22893z"/></g><g fill="#493200" stroke-width="0"><path d="M-60.61934,-13.16037l1.40283,-26.22893l620.12681,33.16696l-1.40283,26.22893z"/><path d="M-62.87389,28.99327l1.40283,-26.22893l620.12681,33.16696l-1.40283,26.22893z"/><path d="M-65.12844,71.1469l1.40283,-26.22893l620.12681,33.16696l-1.40283,26.22893z"/><path d="M-67.38299,113.30054l1.40283,-26.22893l620.12681,33.16696l-1.40283,26.22893z"/><path d="M-69.63756,155.45418l1.40283,-26.22893l620.12681,33.16696l-1.40283,26.22893z"/><path d="M-71.8921,197.60781l1.40283,-26.22893l620.12681,33.16696l-1.40283,26.22893z"/><path d="M-74.14665,239.76145l1.40283,-26.22893l620.12681,33.16696l-1.40283,26.22893z"/><path d="M-76.4012,281.91508l1.40283,-26.22893l620.12681,33.16696l-1.40283,26.22893z"/><path d="M-78.65575,324.06872l1.40283,-26.22893l620.12681,33.16696l-1.40283,26.22893z"/><path d="M-80.9103,366.22236l1.40283,-26.22893l620.12681,33.16696l-1.40283,26.22893z"/></g><path d="M68.985,180c0,-94.44898 76.56603,-171.015 171.01501,-171.015c94.44898,0 171.015,76.56603 171.015,171.01501c0,94.44898 -76.56602,171.015 -171.015,171.015c-94.44898,0 -171.015,-76.56602 -171.015,-171.015z" fill="url(#color-2)" stroke-width="0"/><path d="M-105.18918,180c0,-190.64272 154.54646,-345.18918 345.18918,-345.18918c190.64272,0 345.18918,154.54646 345.18918,345.18918c0,190.64272 -154.54646,345.18918 -345.18918,345.18918c-190.64272,0 -345.18918,-154.54646 -345.18918,-345.18918z" fill="url(#color-3)" stroke-width="0"/></g></g></svg>