<svg version="1.1" xmlns="http://www.w3.org/2000/svg" xmlns:xlink="http://www.w3.org/1999/xlink" width="649.40594" height="649.40594" viewBox="0,0,649.40594,649.40594"><g transform="translate(84.70296,144.70297)"><g data-paper-data="{&quot;isPaintingLayer&quot;:true}" fill-rule="nonzero" stroke="none" stroke-linecap="butt" stroke-linejoin="miter" stroke-miterlimit="10" stroke-dasharray="" stroke-dashoffset="0" style="mix-blend-mode: normal"><path d="M-28.59512,-66.93668h521.86919v483.87337h-521.86918z" fill="#000000" stroke-width="1"/><g fill-opacity="0.03137" fill="#ffffff" stroke-width="0"><g data-paper-data="{&quot;index&quot;:null}"><path d="M-83.30013,6.6061l-1.40283,-26.22893l620.12682,-33.16696l1.40283,26.22893z"/><path d="M-81.04557,48.75974l-1.40283,-26.22893l620.12682,-33.16696l1.40283,26.22892z"/><path d="M-78.79102,90.91338l-1.40283,-26.22893l620.12681,-33.16696l1.40283,26.22892z"/><path d="M-76.53647,133.06702l-1.40283,-26.22893l620.12682,-33.16696l1.40283,26.22892z"/><path d="M-74.28192,175.22065l-1.40283,-26.22893l620.12681,-33.16696l1.40283,26.22892z"/><path d="M-72.02737,217.37428l-1.40283,-26.22893l620.12682,-33.16696l1.40283,26.22893z"/><path d="M-69.7728,259.52792l-1.40284,-26.22893l620.12681,-33.16696l1.40283,26.22893z"/><path d="M-67.51826,301.68155l-1.40283,-26.22893l620.12682,-33.16696l1.40283,26.22893z"/><path d="M-65.26371,343.83519l-1.40283,-26.22893l620.12681,-33.16696l1.40283,26.22893z"/><path d="M-63.00916,385.98883l-1.40283,-26.22893l620.12682,-33.16696l1.40283,26.22893z"/></g><g><path d="M-56.82667,2.23408l1.40284,-26.22893l620.12681,33.16696l-1.40283,26.22893z"/><path d="M-59.08122,44.38771l1.40283,-26.22892l620.12682,33.16696l-1.40283,26.22893z"/><path d="M-61.33577,86.54135l1.40283,-26.22892l620.12681,33.16696l-1.40283,26.22893z"/><path d="M-63.59032,128.69499l1.40283,-26.22892l620.12682,33.16696l-1.40283,26.22893z"/><path d="M-65.84488,170.84862l1.40283,-26.22892l620.12681,33.16696l-1.40283,26.22893z"/><path d="M-68.09942,213.00226l1.40283,-26.22893l620.12682,33.16696l-1.40283,26.22893z"/><path d="M-70.35398,255.1559l1.40283,-26.22893l620.12682,33.16696l-1.40284,26.22893z"/><path d="M-72.60854,297.30953l1.40283,-26.22893l620.12682,33.16696l-1.40283,26.22893z"/><path d="M-74.86308,339.46317l1.40283,-26.22893l620.12682,33.16696l-1.40283,26.22893z"/><path d="M-77.11763,381.61681l1.40283,-26.22893l620.12682,33.16696l-1.40283,26.22893z"/></g><g data-paper-data="{&quot;index&quot;:null}"><path d="M116.4557,503.30014l-26.22893,1.40283l-33.16696,-620.12681l26.22893,-1.40284z"/><path d="M158.60934,501.04558l-26.22893,1.40283l-33.16696,-620.12681l26.22892,-1.40283z"/><path d="M200.76298,498.79103l-26.22893,1.40283l-33.16696,-620.1268l26.22892,-1.40283z"/><path d="M242.91662,496.53648l-26.22893,1.40283l-33.16696,-620.12681l26.22892,-1.40283z"/><path d="M285.07025,494.28193l-26.22893,1.40283l-33.16696,-620.1268l26.22892,-1.40283z"/><path d="M327.22387,492.02738l-26.22893,1.40283l-33.16696,-620.12681l26.22893,-1.40283z"/><path d="M369.37751,489.77281l-26.22893,1.40284l-33.16696,-620.12681l26.22893,-1.40283z"/><path d="M411.53115,487.51827l-26.22893,1.40283l-33.16696,-620.12681l26.22893,-1.40283z"/><path d="M453.68479,485.26372l-26.22893,1.40283l-33.16696,-620.12681l26.22893,-1.40283z"/><path d="M495.83843,483.00917l-26.22893,1.40283l-33.16696,-620.12681l26.22893,-1.40283z"/></g><g><path d="M0.4206,476.82668l-26.22893,-1.40284l33.16696,-620.12681l26.22893,1.40283z"/><path d="M42.57423,479.08123l-26.22892,-1.40283l33.16696,-620.12681l26.22893,1.40283z"/><path d="M84.72787,481.33578l-26.22892,-1.40283l33.16696,-620.1268l26.22893,1.40283z"/><path d="M126.88151,483.59033l-26.22892,-1.40283l33.16696,-620.12681l26.22893,1.40283z"/><path d="M169.03514,485.84488l-26.22892,-1.40283l33.16697,-620.1268l26.22893,1.40283z"/><path d="M211.18878,488.09943l-26.22893,-1.40283l33.16695,-620.12681l26.22893,1.40283z"/><path d="M253.34242,490.35399l-26.22893,-1.40283l33.16696,-620.12681l26.22893,1.40284z"/><path d="M295.49605,492.60854l-26.22893,-1.40283l33.16696,-620.12681l26.22893,1.40283z"/><path d="M337.64969,494.86309l-26.22893,-1.40283l33.16697,-620.12681l26.22893,1.40283z"/><path d="M379.80333,497.11764l-26.22893,-1.40283l33.16696,-620.12681l26.22893,1.40283z"/></g></g></g></g></svg>