<svg version="1.1" xmlns="http://www.w3.org/2000/svg" xmlns:xlink="http://www.w3.org/1999/xlink" width="711.33656" height="483.87337" viewBox="0,0,711.33656,483.87337"><g transform="translate(110.70286,66.93669)"><g data-paper-data="{&quot;isPaintingLayer&quot;:true}" fill-rule="nonzero" stroke="none" stroke-linecap="butt" stroke-linejoin="miter" stroke-miterlimit="10" stroke-dasharray="" stroke-dashoffset="0" style="mix-blend-mode: normal"><path d="M-28.59513,-66.93669h521.86918v483.87337h-521.86918z" fill="#382600" stroke-width="1"/><g fill-opacity="0.21961" fill="#000000" stroke-width="0"><path d="M-60.61934,-11.28421l1.40284,-26.22893l620.12681,33.16696l-1.40283,26.22893z"/><path d="M-62.87389,30.86943l1.40283,-26.22892l620.12681,33.16696l-1.40283,26.22893z"/><path d="M-65.12844,73.02306l1.40283,-26.22893l620.12681,33.16696l-1.40283,26.22893z"/><path d="M-67.38299,115.1767l1.40283,-26.22893l620.12681,33.16696l-1.40283,26.22893z"/><path d="M-69.63754,157.33034l1.40283,-26.22893l620.12681,33.16696l-1.40283,26.22892z"/><path d="M-71.89209,199.48397l1.40283,-26.22893l620.12681,33.16696l-1.40283,26.22893z"/><path d="M-74.14665,241.63761l1.40283,-26.22893l620.12681,33.16696l-1.40284,26.22893z"/><path d="M-76.4012,283.79125l1.40283,-26.22892l620.12681,33.16696l-1.40283,26.22892z"/><path d="M-78.65575,325.94488l1.40283,-26.22893l620.12681,33.16696l-1.40283,26.22893z"/><path d="M-80.9103,368.09852l1.40283,-26.22893l620.12681,33.16696l-1.40283,26.22893z"/></g><g fill-opacity="0.21961" fill="#ffffff" stroke-width="0"><path d="M-90.4119,-15.03655l1.40284,-26.22893l620.12681,33.16696l-1.40283,26.22893z"/><path d="M-92.66645,27.11708l1.40283,-26.22892l620.12681,33.16696l-1.40283,26.22893z"/><path d="M-94.921,69.27072l1.40283,-26.22892l620.12681,33.16696l-1.40283,26.22893z"/><path d="M-97.17555,111.42436l1.40283,-26.22892l620.12681,33.16696l-1.40283,26.22893z"/><path d="M-99.4301,153.57799l1.40283,-26.22892l620.12681,33.16696l-1.40283,26.22893z"/><path d="M-101.68465,195.73163l1.40283,-26.22893l620.12681,33.16696l-1.40283,26.22893z"/><path d="M-103.93921,237.88527l1.40283,-26.22893l620.12681,33.16696l-1.40284,26.22893z"/><path d="M-106.19376,280.0389l1.40283,-26.22893l620.12681,33.16696l-1.40283,26.22893z"/><path d="M-108.44831,322.19254l1.40283,-26.22893l620.12681,33.16696l-1.40283,26.22893z"/><path d="M-110.70286,364.34618l1.40283,-26.22893l620.12681,33.16696l-1.40283,26.22893z"/></g><g fill="#493200" stroke-width="0"><path d="M-20.89594,-13.16038l1.40283,-26.22893l620.12681,33.16696l-1.40283,26.22893z"/><path d="M-23.15049,28.99326l1.40283,-26.22893l620.12681,33.16696l-1.40283,26.22893z"/><path d="M-25.40504,71.14689l1.40283,-26.22893l620.12681,33.16696l-1.40283,26.22893z"/><path d="M-27.65959,113.30053l1.40283,-26.22893l620.12681,33.16696l-1.40283,26.22893z"/><path d="M-29.91415,155.45417l1.40283,-26.22893l620.12681,33.16696l-1.40283,26.22893z"/><path d="M-32.1687,197.6078l1.40283,-26.22893l620.12681,33.16696l-1.40283,26.22893z"/><path d="M-34.42325,239.76144l1.40283,-26.22893l620.12681,33.16696l-1.40283,26.22893z"/><path d="M-36.6778,281.91508l1.40283,-26.22893l620.12681,33.16696l-1.40283,26.22893z"/><path d="M-38.93235,324.06871l1.40283,-26.22893l620.12681,33.16696l-1.40283,26.22893z"/><path d="M-41.1869,366.22235l1.40283,-26.22893l620.12681,33.16696l-1.40283,26.22893z"/></g><text transform="translate(166.82068,361.54483) scale(0.81561,0.81561)" font-size="40" xml:space="preserve" fill-opacity="0.35294" fill="#000000" fill-rule="nonzero" stroke="none" stroke-width="1" stroke-linecap="butt" stroke-linejoin="miter" stroke-miterlimit="10" stroke-dasharray="" stroke-dashoffset="0" font-family="Sans Serif" font-weight="normal" text-anchor="start" style="mix-blend-mode: normal"><tspan x="0" dy="0">Comming Soon...</tspan></text><text transform="translate(57.58131,308.58029) scale(0.81561,0.81561)" font-size="40" xml:space="preserve" fill="#7f5700" fill-rule="nonzero" stroke="none" stroke-width="1" stroke-linecap="butt" stroke-linejoin="miter" stroke-miterlimit="10" stroke-dasharray="" stroke-dashoffset="0" font-family="Sans Serif" font-weight="normal" text-anchor="start" style="mix-blend-mode: normal"><tspan x="0" dy="0">Comming Soon...</tspan></text></g></g></svg>