<svg version="1.1" xmlns="http://www.w3.org/2000/svg" xmlns:xlink="http://www.w3.org/1999/xlink" width="649.40594" height="649.40594" viewBox="0,0,649.40594,649.40594"><g transform="translate(84.70297,144.70297)"><g data-paper-data="{&quot;isPaintingLayer&quot;:true}" fill-rule="nonzero" stroke="none" stroke-linecap="butt" stroke-linejoin="miter" stroke-miterlimit="10" stroke-dasharray="" stroke-dashoffset="0" style="mix-blend-mode: normal"><path d="M-28.59513,-66.93668h521.86918v483.87337h-521.86918z" fill="#000000" stroke-width="1"/><g fill-opacity="0.03137" fill="#ffffff" stroke-width="0"><g data-paper-data="{&quot;index&quot;:null}"><path d="M-83.30014,6.6061l-1.40283,-26.22893l620.12681,-33.16696l1.40284,26.22893z"/><path d="M-81.04558,48.75974l-1.40283,-26.22893l620.12681,-33.16696l1.40283,26.22892z"/><path d="M-78.79103,90.91338l-1.40283,-26.22893l620.12681,-33.16696l1.40283,26.22892z"/><path d="M-76.53648,133.06702l-1.40283,-26.22893l620.12681,-33.16696l1.40283,26.22892z"/><path d="M-74.28193,175.22065l-1.40283,-26.22893l620.12681,-33.16696l1.40283,26.22892z"/><path d="M-72.02738,217.37428l-1.40283,-26.22893l620.12681,-33.16696l1.40283,26.22893z"/><path d="M-69.77281,259.52792l-1.40284,-26.22893l620.12681,-33.16696l1.40283,26.22893z"/><path d="M-67.51827,301.68155l-1.40283,-26.22893l620.12681,-33.16696l1.40283,26.22893z"/><path d="M-65.26372,343.83519l-1.40283,-26.22893l620.12681,-33.16696l1.40283,26.22893z"/><path d="M-63.00917,385.98883l-1.40283,-26.22893l620.12681,-33.16696l1.40283,26.22893z"/></g><g><path d="M-56.82668,2.23408l1.40284,-26.22893l620.12681,33.16696l-1.40283,26.22893z"/><path d="M-59.08123,44.38771l1.40283,-26.22892l620.12681,33.16696l-1.40283,26.22893z"/><path d="M-61.33578,86.54135l1.40283,-26.22892l620.12681,33.16696l-1.40283,26.22893z"/><path d="M-63.59033,128.69499l1.40283,-26.22892l620.12681,33.16696l-1.40283,26.22893z"/><path d="M-65.84488,170.84862l1.40283,-26.22892l620.12681,33.16696l-1.40283,26.22893z"/><path d="M-68.09943,213.00226l1.40283,-26.22893l620.12681,33.16696l-1.40283,26.22893z"/><path d="M-70.35399,255.1559l1.40283,-26.22893l620.12681,33.16696l-1.40284,26.22893z"/><path d="M-72.60854,297.30953l1.40283,-26.22893l620.12681,33.16696l-1.40283,26.22893z"/><path d="M-74.86309,339.46317l1.40283,-26.22893l620.12681,33.16696l-1.40283,26.22893z"/><path d="M-77.11764,381.61681l1.40283,-26.22893l620.12681,33.16696l-1.40283,26.22893z"/></g><g data-paper-data="{&quot;index&quot;:null}"><path d="M116.45569,503.30014l-26.22893,1.40283l-33.16696,-620.12681l26.22893,-1.40284z"/><path d="M158.60933,501.04558l-26.22893,1.40283l-33.16696,-620.12681l26.22892,-1.40283z"/><path d="M200.76297,498.79103l-26.22893,1.40283l-33.16696,-620.12681l26.22892,-1.40283z"/><path d="M242.91661,496.53648l-26.22893,1.40283l-33.16696,-620.12681l26.22892,-1.40283z"/><path d="M285.07024,494.28193l-26.22893,1.40283l-33.16696,-620.12681l26.22892,-1.40283z"/><path d="M327.22387,492.02738l-26.22893,1.40283l-33.16696,-620.12681l26.22893,-1.40283z"/><path d="M369.37751,489.77281l-26.22893,1.40284l-33.16696,-620.12681l26.22893,-1.40283z"/><path d="M411.53114,487.51827l-26.22893,1.40283l-33.16696,-620.12681l26.22893,-1.40283z"/><path d="M453.68478,485.26372l-26.22893,1.40283l-33.16696,-620.12681l26.22893,-1.40283z"/><path d="M495.83842,483.00917l-26.22893,1.40283l-33.16696,-620.12681l26.22893,-1.40283z"/></g><g><path d="M0.42059,476.82668l-26.22893,-1.40284l33.16696,-620.12681l26.22893,1.40283z"/><path d="M42.57422,479.08123l-26.22892,-1.40283l33.16696,-620.12681l26.22893,1.40283z"/><path d="M84.72786,481.33578l-26.22892,-1.40283l33.16696,-620.12681l26.22893,1.40283z"/><path d="M126.8815,483.59033l-26.22892,-1.40283l33.16696,-620.12681l26.22893,1.40283z"/><path d="M169.03513,485.84488l-26.22892,-1.40283l33.16696,-620.12681l26.22893,1.40283z"/><path d="M211.18877,488.09943l-26.22893,-1.40283l33.16696,-620.12681l26.22893,1.40283z"/><path d="M253.34241,490.35399l-26.22893,-1.40283l33.16696,-620.12681l26.22893,1.40284z"/><path d="M295.49604,492.60854l-26.22893,-1.40283l33.16696,-620.12681l26.22893,1.40283z"/><path d="M337.64968,494.86309l-26.22893,-1.40283l33.16696,-620.12681l26.22893,1.40283z"/><path d="M379.80332,497.11764l-26.22893,-1.40283l33.16696,-620.12681l26.22893,1.40283z"/></g></g><text transform="translate(7.32854,179.20301) scale(0.63744,0.63744)" font-size="40" xml:space="preserve" fill="#ffffff" fill-rule="nonzero" stroke="none" stroke-width="1" stroke-linecap="butt" stroke-linejoin="miter" stroke-miterlimit="10" stroke-dasharray="" stroke-dashoffset="0" font-family="&quot;Comic Sans MS&quot;, Sans Serif" font-weight="normal" text-anchor="start" style="mix-blend-mode: normal"><tspan x="0" dy="0">Why did you fast forward the time? &gt;:(</tspan></text><text transform="translate(150.03012,197.71742) scale(0.44576,0.44576)" font-size="40" xml:space="preserve" fill="#ffffff" fill-rule="nonzero" stroke="none" stroke-width="1" stroke-linecap="butt" stroke-linejoin="miter" stroke-miterlimit="10" stroke-dasharray="" stroke-dashoffset="0" font-family="&quot;Comic Sans MS&quot;, Sans Serif" font-weight="normal" text-anchor="start" style="mix-blend-mode: normal"><tspan x="0" dy="0">Im closing this tab &gt;:(</tspan></text></g></g></svg>